<svg xmlns="http://www.w3.org/2000/svg" data-name="Layer 1" viewBox="0 0 512 512"><path fill="#fd4755" d="M504.5,135.5V326.23a177,177,0,0,1-70.06,141.32,111.26,111.26,0,0,1-134.33,0,177.35,177.35,0,0,1-70.05-141.32V117.69a251.59,251.59,0,0,0,81.88,35.07,245.07,245.07,0,0,0,53.56,6.3,250.06,250.06,0,0,0,124.12-32.28A10,10,0,0,1,504.5,135.5Z"/><path fill="#fb2b3a" d="M489.62 126.78c-4.44 2.5-9.5 5.16-15.12 7.84V296.23a177 177 0 0 1-70.06 141.32 111.26 111.26 0 0 1-134.33 0c-.81-.61-1.61-1.25-2.42-1.88a175.49 175.49 0 0 0 32.42 31.88 111.26 111.26 0 0 0 134.33 0A177 177 0 0 0 504.5 326.23V135.5A10 10 0 0 0 489.62 126.78zM311.94 152.76v69.88A177.05 177.05 0 0 1 241.89 364q-3.28 2.49-6.71 4.69a177.9 177.9 0 0 1-5.12-42.42V117.69A251.59 251.59 0 0 0 311.94 152.76z"/><path fill="#e8edf2" d="M424.89 393.8a5 5 0 0 0 6.95-5.7c-7.3-30-34.36-51.85-65.37-51.47-30.42.37-56.61 22-63.76 51.48a5 5 0 0 0 7 5.69 138.52 138.52 0 0 1 115.23 0zM428.81 227.33a38.79 38.79 0 0 0-33.38 19.15 4.93 4.93 0 0 0 0 5 38.66 38.66 0 0 0 66.75 0 4.88 4.88 0 0 0 0-5A38.77 38.77 0 0 0 428.81 227.33zM305.75 227.33a38.76 38.76 0 0 0-33.37 19.15 4.88 4.88 0 0 0 0 5 38.66 38.66 0 0 0 66.75 0 4.93 4.93 0 0 0 0-5A38.79 38.79 0 0 0 305.75 227.33z"/><path fill="#d9e7ec" d="M305.75,227.33A38.85,38.85,0,0,0,271,249a38.86,38.86,0,0,0,34.33,21.63,177.76,177.76,0,0,0,6.51-42.77A38.45,38.45,0,0,0,305.75,227.33Z"/><path fill="#97d729" d="M211.89,364a111.26,111.26,0,0,1-134.33,0A177,177,0,0,1,7.5,222.64V31.91A10,10,0,0,1,22.41,23.2,250,250,0,0,0,142.94,55.47,250.15,250.15,0,0,0,267.06,23.18a10,10,0,0,1,14.88,8.73V222.64A177.05,177.05,0,0,1,211.89,364Z"/><path fill="#8bc727" d="M267.06,23.18c-4.44,2.5-9.5,5.16-15.12,7.84V192.64A177.05,177.05,0,0,1,181.89,334a111.26,111.26,0,0,1-134.33,0c-.82-.62-1.62-1.26-2.42-1.89A174.92,174.92,0,0,0,77.56,364a111.26,111.26,0,0,0,134.33,0,177.05,177.05,0,0,0,70.05-141.32V31.91A10,10,0,0,0,267.06,23.18Z"/><path fill="#e8edf2" d="M202.34 237.32a5 5 0 0 1 6.95 5.7c-7.31 30-34.37 51.85-65.38 51.47-30.42-.37-56.61-22.05-63.76-51.49a5 5 0 0 1 6.95-5.68 138.55 138.55 0 0 0 115.24 0zM206.25 123.73a38.84 38.84 0 0 0-34.73 21.64 38.69 38.69 0 0 0 69.46 0A38.85 38.85 0 0 0 206.25 123.73zM83.19 123.73a38.85 38.85 0 0 0-34.73 21.64 38.7 38.7 0 0 0 69.47 0A38.86 38.86 0 0 0 83.19 123.73z"/><path d="M503.33,120.39a17.33,17.33,0,0,0-17.39-.15A242.84,242.84,0,0,1,367.3,151.57h-1.75a239.14,239.14,0,0,1-76.11-13V31.91a17.49,17.49,0,0,0-26.06-15.26A242.88,242.88,0,0,1,144.71,48H143A243,243,0,0,1,26.09,16.67,17.5,17.5,0,0,0,0,31.91V222.64c0,57.71,27.3,112.78,73,147.3a118.74,118.74,0,0,0,143.37,0c3.31-2.5,6.53-5.13,9.65-7.84a184.94,184.94,0,0,0,69.53,111.44,118.78,118.78,0,0,0,143.37,0C484.7,439,512,384,512,326.23V135.5A17.33,17.33,0,0,0,503.33,120.39ZM288.6,240a30.76,30.76,0,0,1,17.15-5.18A31.14,31.14,0,0,1,331.85,249a31.1,31.1,0,0,1-45.53,7.3Q287.82,248.22,288.6,240ZM207.37,358a103.76,103.76,0,0,1-125.3,0C40.07,326.26,15,275.67,15,222.64V31.91a2.42,2.42,0,0,1,1.23-2.16,2.6,2.6,0,0,1,1.27-.35,2.47,2.47,0,0,1,1.23.34A258,258,0,0,0,142.89,63h1.82a258,258,0,0,0,126-33.25,2.38,2.38,0,0,1,2.46,0,2.45,2.45,0,0,1,1.24,2.17V222.64C274.44,275.67,249.37,326.26,207.37,358ZM497,326.23c0,53-25.08,103.63-67.08,135.33a103.74,103.74,0,0,1-125.29,0A170,170,0,0,1,239.15,349.5a185.88,185.88,0,0,0,43.56-77.59,46.1,46.1,0,0,0,64.48-19.59,7.46,7.46,0,0,0,0-6.7,46.21,46.21,0,0,0-57.75-22.82V154.34a253.85,253.85,0,0,0,76,12.22A257.5,257.5,0,0,0,493.3,133.31a2.4,2.4,0,0,1,2.46,0A2.43,2.43,0,0,1,497,135.5ZM124.64,148.72a7.52,7.52,0,0,0,0-6.7,46.2,46.2,0,0,0-82.89,0,7.52,7.52,0,0,0,0,6.7,46.2,46.2,0,0,0,82.89,0ZM57.1,145.37a31.15,31.15,0,0,1,52.19,0,31.15,31.15,0,0,1-52.19,0Zm149.15-29.14A46.15,46.15,0,0,0,164.81,142a7.48,7.48,0,0,0,0,6.71,46.19,46.19,0,0,0,82.88,0,7.52,7.52,0,0,0,0-6.7A46.15,46.15,0,0,0,206.25,116.23Zm0,43.28a31.14,31.14,0,0,1-26.1-14.14,31.15,31.15,0,0,1,52.19,0A31.11,31.11,0,0,1,206.25,159.51Zm222.56,60.32a46.16,46.16,0,0,0-41.45,25.79,7.52,7.52,0,0,0,0,6.7,46.2,46.2,0,0,0,82.89,0,7.52,7.52,0,0,0,0-6.7A46.14,46.14,0,0,0,428.81,219.83Zm0,43.28A31.12,31.12,0,0,1,402.71,249a31.15,31.15,0,0,1,52.19,0A31.11,31.11,0,0,1,428.81,263.11Zm-61.54,66h-.89a73.22,73.22,0,0,0-49.25,20,75.36,75.36,0,0,0-23.54,48.27,7.5,7.5,0,0,0,11.05,7.26A131.81,131.81,0,0,1,367,388.75h.24a131.86,131.86,0,0,1,62.64,15.93A7.5,7.5,0,0,0,441,397.42C437.5,359,405.22,329.12,367.27,329.12Zm0,44.63H367a146.36,146.36,0,0,0-55.52,11.09c8-23.4,30-40.41,55.07-40.71,25.81-.32,48.43,16.74,56.54,40.73A146.25,146.25,0,0,0,367.28,373.75Zm-152.22-147a7.52,7.52,0,0,0-7.7-.33,131.73,131.73,0,0,1-62.64,15.94h-.24a131.72,131.72,0,0,1-62.4-15.94,7.51,7.51,0,0,0-11,7.27A75.36,75.36,0,0,0,94.57,282a73.22,73.22,0,0,0,49.25,20h.89c37.95,0,70.24-29.84,73.7-68.3A7.5,7.5,0,0,0,215.06,226.76ZM144,287c-25.06-.31-47.07-17.32-55.07-40.72a146.21,146.21,0,0,0,55.53,11.1h.26a146.25,146.25,0,0,0,55.82-11.11C192.44,270.25,169.79,287.3,144,287Z"/></svg>